<svg width="600" height="400" viewBox="0 0 600 400" xmlns="http://www.w3.org/2000/svg">
  <defs>
    <linearGradient id="bgGrad" x1="0%" y1="0%" x2="100%" y2="100%">
      <stop offset="0%" style="stop-color:#f0f9ff;stop-opacity:1" />
      <stop offset="100%" style="stop-color:#e0e7ff;stop-opacity:1" />
    </linearGradient>
    <linearGradient id="office365Grad" x1="0%" y1="0%" x2="100%" y2="100%">
      <stop offset="0%" style="stop-color:#d73027;stop-opacity:1" />
      <stop offset="100%" style="stop-color:#fc8d59;stop-opacity:1" />
    </linearGradient>
    <linearGradient id="googleGrad" x1="0%" y1="0%" x2="100%" y2="100%">
      <stop offset="0%" style="stop-color:#4285f4;stop-opacity:1" />
      <stop offset="25%" style="stop-color:#34a853;stop-opacity:1" />
      <stop offset="50%" style="stop-color:#fbbc05;stop-opacity:1" />
      <stop offset="75%" style="stop-color:#ea4335;stop-opacity:1" />
      <stop offset="100%" style="stop-color:#4285f4;stop-opacity:1" />
    </linearGradient>
  </defs>
  
  <!-- Background -->
  <rect width="600" height="400" fill="url(#bgGrad)"/>
  
  <!-- Office 365 Logo Area -->
  <g transform="translate(80,160)">
    <rect x="0" y="0" width="80" height="80" rx="8" fill="url(#office365Grad)"/>
    <text x="40" y="50" text-anchor="middle" fill="white" font-family="Arial, sans-serif" font-size="12" font-weight="bold">Office</text>
    <text x="40" y="65" text-anchor="middle" fill="white" font-family="Arial, sans-serif" font-size="12" font-weight="bold">365</text>
  </g>
  
  <!-- Arrow -->
  <g transform="translate(250,200)">
    <path d="M0,0 L80,0 L70,-10 M80,0 L70,10" stroke="#6366f1" stroke-width="4" fill="none" stroke-linecap="round"/>
    <circle cx="40" cy="0" r="15" fill="#6366f1" opacity="0.2"/>
    <text x="40" y="35" text-anchor="middle" fill="#6366f1" font-family="Arial, sans-serif" font-size="12" font-weight="bold">MIGRATE</text>
  </g>
  
  <!-- Google Workspace Logo Area -->
  <g transform="translate(440,160)">
    <rect x="0" y="0" width="80" height="80" rx="8" fill="url(#googleGrad)"/>
    <text x="40" y="45" text-anchor="middle" fill="white" font-family="Arial, sans-serif" font-size="10" font-weight="bold">Google</text>
    <text x="40" y="60" text-anchor="middle" fill="white" font-family="Arial, sans-serif" font-size="10" font-weight="bold">Workspace</text>
  </g>
  
  <!-- Title -->
  <text x="300" y="50" text-anchor="middle" fill="#1f2937" font-family="Arial, sans-serif" font-size="24" font-weight="bold">Office 365 to Google Migration</text>
  
  <!-- Subtitle -->
  <text x="300" y="80" text-anchor="middle" fill="#6b7280" font-family="Arial, sans-serif" font-size="14">Seamless data migration with minimal downtime</text>
  
  <!-- Features -->
  <g transform="translate(50,300)">
    <circle cx="10" cy="0" r="4" fill="#10b981"/>
    <text x="25" y="5" fill="#374151" font-family="Arial, sans-serif" font-size="12">Secure Data Transfer</text>
  </g>
  
  <g transform="translate(200,300)">
    <circle cx="10" cy="0" r="4" fill="#10b981"/>
    <text x="25" y="5" fill="#374151" font-family="Arial, sans-serif" font-size="12">User Training</text>
  </g>
  
  <g transform="translate(350,300)">
    <circle cx="10" cy="0" r="4" fill="#10b981"/>
    <text x="25" y="5" fill="#374151" font-family="Arial, sans-serif" font-size="12">Minimal Downtime</text>
  </g>
  
  <g transform="translate(500,300)">
    <circle cx="10" cy="0" r="4" fill="#10b981"/>
    <text x="25" y="5" fill="#374151" font-family="Arial, sans-serif" font-size="12">Expert Support</text>
  </g>
  
  <!-- Cloud elements -->
  <g transform="translate(150,120)" opacity="0.3">
    <path d="M0,20 C0,10 10,0 20,0 C25,0 30,3 32,8 C35,5 40,5 45,8 C50,0 60,0 65,10 C70,10 75,15 75,20 C75,25 70,30 65,30 L10,30 C5,30 0,25 0,20 Z" fill="#a5b4fc"/>
  </g>
  
  <g transform="translate(350,120)" opacity="0.3">
    <path d="M0,20 C0,10 10,0 20,0 C25,0 30,3 32,8 C35,5 40,5 45,8 C50,0 60,0 65,10 C70,10 75,15 75,20 C75,25 70,30 65,30 L10,30 C5,30 0,25 0,20 Z" fill="#a5b4fc"/>
  </g>
</svg>
